<svg width="1190" height="420" viewBox="0 0 1190 420" fill="none" xmlns="http://www.w3.org/2000/svg">
<path opacity="0.2" d="M1170 33C1170 21.9543 1161.05 13 1150 13H129C57.7553 13 0 70.7553 0 142V400C0 411.046 8.95431 420 20 420H1150C1161.05 420 1170 411.046 1170 400V33Z" fill="#DFD7F9"/>
<g opacity="0.1">
<mask id="mask0_1_440" style="mask-type:alpha" maskUnits="userSpaceOnUse" x="906" y="13" width="264" height="352">
<path d="M906.5 13.5H1146C1158.98 13.5 1169.5 24.0213 1169.5 37V364.022H956C928.662 364.022 906.5 341.86 906.5 314.522V13.5Z" fill="url(#paint0_linear_1_440)" stroke="#6246E5"/>
</mask>
<g mask="url(#mask0_1_440)">
<circle cx="1145.01" cy="191.32" r="91.8033" stroke="#6246E5"/>
<circle cx="1137.73" cy="181.604" r="102.734" stroke="#6246E5"/>
<circle cx="1131.66" cy="173.71" r="112.45" stroke="#6246E5"/>
<circle cx="1125.58" cy="162.171" r="120.952" stroke="#6246E5"/>
<circle cx="1119.81" cy="150.937" r="129.15" stroke="#6246E5"/>
<circle cx="1110.1" cy="138.185" r="141.902" stroke="#6246E5"/>
</g>
</g>
<g opacity="0.1">
<mask id="mask1_1_440" style="mask-type:alpha" maskUnits="userSpaceOnUse" x="12" y="139" width="381" height="281">
<rect x="392.5" y="139.5" width="280" height="380" transform="rotate(90 392.5 139.5)" fill="url(#paint1_linear_1_440)" stroke="#6246E5"/>
</mask>
<g mask="url(#mask1_1_440)">
<path d="M149.505 512.92C80.1725 512.92 23.9659 456.635 23.9659 387.202C23.9659 317.769 80.1725 261.484 149.505 261.484C218.838 261.484 275.045 317.769 275.045 387.202C275.045 456.635 218.838 512.92 149.505 512.92Z" stroke="#6246E5"/>
<path d="M162.773 517.902C85.1967 517.902 22.3076 454.925 22.3076 377.237C22.3076 299.55 85.1967 236.573 162.773 236.573C240.349 236.573 303.238 299.55 303.238 377.237C303.238 454.925 240.349 517.902 162.773 517.902Z" stroke="#6246E5"/>
<path d="M173.552 522.885C88.6489 522.885 19.8199 453.959 19.8199 368.934C19.8199 283.909 88.6489 214.983 173.552 214.983C258.456 214.983 327.285 283.909 327.285 368.934C327.285 453.959 258.456 522.885 173.552 522.885Z" stroke="#6246E5"/>
<path d="M189.308 526.206C97.9928 526.206 23.9663 452.076 23.9663 360.63C23.9663 269.184 97.9929 195.054 189.308 195.054C280.623 195.054 354.649 269.184 354.649 360.63C354.649 452.076 280.623 526.206 189.308 526.206Z" stroke="#6246E5"/>
<path d="M204.648 529.528C107.151 529.528 28.1122 450.378 28.1122 352.742C28.1122 255.105 107.151 175.955 204.648 175.955C302.145 175.955 381.183 255.105 381.183 352.742C381.183 450.379 302.145 529.528 204.648 529.528Z" stroke="#6246E5"/>
<path d="M222.061 533.68C114.947 533.68 28.1122 446.723 28.1122 339.456C28.1122 232.188 114.947 145.231 222.061 145.231C329.176 145.231 416.01 232.188 416.01 339.456C416.01 446.723 329.176 533.68 222.061 533.68Z" stroke="#6246E5"/>
</g>
</g>
<circle cx="1155" cy="35" r="35" fill="url(#paint2_linear_1_440)"/>
<path d="M1172.61 23.9904C1173.3 25.1878 1173.21 26.6136 1172.37 27.711L1153.89 51.8182C1153.13 52.8123 1151.88 53.3191 1150.59 53.0729C1149.34 52.8313 1148.34 51.9156 1148 50.6841L1145.26 40.9555L1144.98 39.9435L1144.24 39.191L1137.19 31.9595C1136.29 31.0444 1136 29.724 1136.42 28.5154C1136.83 27.3206 1137.87 26.4536 1139.15 26.2856L1169.27 22.3404C1170.64 22.1604 1171.92 22.793 1172.61 23.9904Z" fill="white"/>
<path d="M1145.26 40.9555L1148 50.6841C1148.34 51.9157 1149.34 52.8313 1150.59 53.0729C1151.88 53.3192 1153.13 52.8124 1153.89 51.8182L1172.37 27.7111C1173.21 26.6137 1173.3 25.1879 1172.61 23.9905L1144.98 39.9436L1145.26 40.9555Z" fill="white"/>
<path d="M1156.22 33.4515C1156.5 33.9385 1156.34 34.5616 1155.85 34.8431L1145.26 40.9553L1144.98 39.9434L1144.24 39.1909L1154.83 33.0787C1155.32 32.7973 1155.94 32.9646 1156.22 33.4515Z" fill="url(#paint3_linear_1_440)"/>
<path d="M1145.26 40.9554L1155.85 34.8432C1156.34 34.5617 1156.5 33.9387 1156.22 33.4517L1144.98 39.9435L1145.26 40.9554Z" fill="url(#paint4_linear_1_440)"/>
<defs>
<linearGradient id="paint0_linear_1_440" x1="1093.24" y1="22.8623" x2="911.232" y2="367.287" gradientUnits="userSpaceOnUse">
<stop stop-color="#747DEF"/>
<stop offset="1" stop-color="#5E3BE1"/>
</linearGradient>
<linearGradient id="paint1_linear_1_440" x1="592.296" y1="149.689" x2="393.024" y2="520.013" gradientUnits="userSpaceOnUse">
<stop stop-color="#747DEF"/>
<stop offset="1" stop-color="#5E3BE1"/>
</linearGradient>
<linearGradient id="paint2_linear_1_440" x1="1169.65" y1="1.96393" x2="1139.56" y2="77.7643" gradientUnits="userSpaceOnUse">
<stop stop-color="#747DEF"/>
<stop offset="1" stop-color="#5E3BE1"/>
</linearGradient>
<linearGradient id="paint3_linear_1_440" x1="1152.41" y1="34.5441" x2="1153.55" y2="36.8251" gradientUnits="userSpaceOnUse">
<stop stop-color="#747DEF"/>
<stop offset="1" stop-color="#5E3BE1"/>
</linearGradient>
<linearGradient id="paint4_linear_1_440" x1="1152.9" y1="35.4017" x2="1153.51" y2="36.5259" gradientUnits="userSpaceOnUse">
<stop stop-color="#747DEF"/>
<stop offset="1" stop-color="#5E3BE1"/>
</linearGradient>
</defs>
</svg>
