<svg width="381" height="281" viewBox="0 0 381 281" fill="none" xmlns="http://www.w3.org/2000/svg">
<g opacity="0.1">
<mask id="mask0_1_470" style="mask-type:alpha" maskUnits="userSpaceOnUse" x="0" y="0" width="381" height="281">
<rect x="380.5" y="0.5" width="280" height="380" transform="rotate(90 380.5 0.5)" fill="url(#paint0_linear_1_470)" stroke="#6246E5"/>
</mask>
<g mask="url(#mask0_1_470)">
<path d="M137.505 373.92C68.1725 373.92 11.9659 317.635 11.9659 248.202C11.9659 178.769 68.1725 122.484 137.505 122.484C206.838 122.484 263.045 178.769 263.045 248.202C263.045 317.635 206.838 373.92 137.505 373.92Z" stroke="#6246E5"/>
<path d="M150.773 378.902C73.1967 378.902 10.3076 315.925 10.3076 238.237C10.3076 160.55 73.1967 97.5727 150.773 97.5727C228.349 97.5728 291.238 160.55 291.238 238.237C291.238 315.925 228.349 378.902 150.773 378.902Z" stroke="#6246E5"/>
<path d="M161.552 383.885C76.6489 383.885 7.81987 314.959 7.81988 229.934C7.81988 144.909 76.6489 75.9831 161.552 75.9831C246.456 75.9832 315.285 144.909 315.285 229.934C315.285 314.959 246.456 383.885 161.552 383.885Z" stroke="#6246E5"/>
<path d="M177.308 387.206C85.9928 387.206 11.9663 313.076 11.9663 221.63C11.9663 130.184 85.9929 56.0542 177.308 56.0542C268.623 56.0542 342.649 130.184 342.649 221.63C342.649 313.076 268.623 387.206 177.308 387.206Z" stroke="#6246E5"/>
<path d="M192.648 390.528C95.1505 390.528 16.1122 311.378 16.1122 213.742C16.1122 116.105 95.1505 36.9553 192.648 36.9553C290.145 36.9553 369.183 116.105 369.183 213.742C369.183 311.379 290.145 390.528 192.648 390.528Z" stroke="#6246E5"/>
<path d="M210.061 394.68C102.947 394.68 16.1122 307.723 16.1122 200.456C16.1122 93.1879 102.947 6.23143 210.061 6.23144C317.176 6.23144 404.01 93.1879 404.01 200.456C404.01 307.723 317.176 394.68 210.061 394.68Z" stroke="#6246E5"/>
</g>
</g>
<defs>
<linearGradient id="paint0_linear_1_470" x1="580.296" y1="10.6894" x2="381.024" y2="381.013" gradientUnits="userSpaceOnUse">
<stop stop-color="#747DEF"/>
<stop offset="1" stop-color="#5E3BE1"/>
</linearGradient>
</defs>
</svg>
